<?xml version="1.0" encoding="utf-8"?>
<!-- Generator: Adobe Illustrator 24.1.0, SVG Export Plug-In . SVG Version: 6.00 Build 0)  -->
<svg version="1.1" id="Layer_1" xmlns="http://www.w3.org/2000/svg" xmlns:xlink="http://www.w3.org/1999/xlink" x="0px" y="0px"
	 width="317px" height="317px" viewBox="0 0 46.8036232 46.80476" enable-background="new 0 0 46.8036232 46.80476" xml:space="preserve">
<g>
	<path fill="#FFFFFF" stroke="#0069A9" stroke-width="0.433" d="M23.5345554,2.2853594l0.9210186,0.0260079
		c0.1726933-0.0365052,0.6683044-1.9129698,0.7679863-1.9740262c0.1067047-0.0652981,1.2235794,0.0287929,1.3267765,0.1207416
		c0.1572456,0.1404081,0.1193371,1.7879865,0.2864132,2.1087787l0.9055767,0.1692009
		c0.1762009-0.0091262,0.9589272-1.7851586,1.0670395-1.8294191c0.1151237-0.0484166,1.2039242,0.2190316,1.2916737,0.3264478
		c0.1333828,0.1628598-0.1621628,1.7844731-0.0470333,2.1277599l0.8676682,0.3081522
		c0.1755009,0.0189812,1.2270947-1.6124871,1.3401165-1.6398659c0.1214447-0.0294784,1.1547852,0.4050713,1.2249832,0.5243988
		c0.1060028,0.1818409-0.4387474,1.7374706-0.3797798,2.094768l0.8094025,0.4401627
		c0.1698875,0.0456314,1.4636688-1.401211,1.580204-1.4103372c0.1249504-0.0098119,1.0775642,0.5812562,1.1274033,0.7097533
		c0.076519,0.196537-0.7055054,1.6468496-0.7019958,2.0091176L36.6513824,6.95859
		c0.1614647,0.0715961,1.6651421-1.1548004,1.7816734-1.1456742c0.1249504,0.0098119,0.973671,0.742702,1.002449,0.8774977
		c0.0449295,0.2057061-0.95401,1.5163393-1.0073662,1.8743219l0.6332016,0.6690063
		c0.147419,0.0961905,1.8251953-0.8802824,1.9382172-0.8529034c0.1221466,0.0287924,0.8452072,0.8852091,0.8536263,1.0235186
		c0.01194,0.2098618-1.1800575,1.3485088-1.2888641,1.6938953l0.5208855,0.7595835
		c0.1305695,0.1179132,1.9403191-0.5840845,2.0477257-0.5391378c0.1158257,0.0477304,0.696373,1.0066366,0.6830406,1.1442595
		c-0.0210609,0.209177-1.3766136,1.1470451-1.5380745,1.4713936l0.3952255,0.8318653
		c0.1109085,0.1368952,2.0077057-0.2731037,2.107399-0.2120047c0.1074028,0.0652552,0.5307083,1.102828,0.4956055,1.2368946
		c-0.0540504,0.2036066-1.5387802,0.9175158-1.749382,1.2123423l0.2604408,0.8838387
		c0.088459,0.1523209,2.0259705,0.0442181,2.1144257,0.1200562c0.0954628,0.0807228,0.3509979,1.1723251,0.2955322,1.2986794
		c-0.0849419,0.1930676-1.6630325,0.6661777-1.9171562,0.9245434l0.1193504,0.9132748
		c0.0631752,0.1642723,1.9936714,0.3608532,2.0694885,0.4492874c0.0814285,0.0954628,0.1635666,1.2130718,0.0891495,1.3295727
		c-0.1144295,0.1769123-1.7472687,0.3973579-2.0386047,0.6128769l-0.0252686,0.9202995
		c0.0365028,0.1726723,1.9129486,0.6690063,1.9740143,0.7679825c0.0659943,0.1066875-0.0287819,1.2235699-0.1200333,1.326786
		c-0.1404076,0.1572475-1.7879982,0.1193275-2.1095085,0.2863865l-0.169178,0.9056053
		c0.0098228,0.1761837,1.7851791,0.9596329,1.8301048,1.067049c0.0477295,0.1158142-0.2197304,1.2045879-0.3264275,1.2916527
		c-0.1635666,0.1333809-1.7844849-0.1614456-2.1284561-0.0470448l-0.3081856,0.8683701
		c-0.0182495,0.1748142,1.6124878,1.2263985,1.6405754,1.3401108c0.0287819,0.1214714-0.4057579,1.1548004-0.5250969,1.2243004
		c-0.1818199,0.1066856-1.7367401-0.4387512-2.0940552-0.3790665l-0.4408569,0.8086853
		c-0.0449257,0.1705742,1.4011841,1.4643669,1.4103088,1.5809097c0.0105286,0.1242561-0.5805435,1.0768623-0.7097168,1.1274223
		c-0.1958542,0.0764809-1.6468849-0.705513-2.0091171-0.7027245l-0.5615959,0.7301025
		c-0.0716057,0.1614456,1.1547852,1.6651039,1.1456604,1.7816467c-0.0091286,0.1249847-0.742012,0.9736862-0.8767967,1.0024796
		c-0.2063866,0.0449028-1.5170135-0.9540215-1.8750343-1.0074081l-0.6690063,0.6332283
		c-0.0954666,0.1473923,0.8803101,1.8251801,0.8536301,1.9382095c-0.0294838,0.1221542-0.8859215,0.8451881-1.02351,0.8536301
		c-0.2106018,0.0119553-1.3492393-1.1800346-1.693924-1.288868l-0.7602654,0.5208855
		c-0.1179352,0.1305542,0.5840645,1.9403076,0.5398407,2.0484085c-0.0477371,0.1151276-1.00737,0.6957016-1.1442604,0.682373
		c-0.2098923-0.02108-1.1477661-1.3766136-1.4720879-1.538105l-0.8318672,0.3952599
		c-0.1368885,0.1116142,0.2730789,2.0083885,0.2127075,2.1080933c-0.0652885,0.1066895-1.1035461,0.530014-1.2369213,0.4948769
		c-0.2042809-0.0540276-0.9182129-1.5387459-1.2130547-1.749382l-0.88311,0.2604675
		c-0.153038,0.0884323-0.0449314,2.0259552-0.1207485,2.1151199c-0.0807285,0.095459-1.1723347,0.3509979-1.2986946,0.2955551
		c-0.1930504-0.0849648-0.6661949-1.6637344-0.9245319-1.9178543l-0.9132957,0.1193275
		c-0.1642685,0.0631561-0.3608265,1.9936485-0.4492779,2.0701714c-0.0954723,0.0814514-1.2130566,0.1628609-1.3295879,0.0884781
		c-0.1769028-0.1137581-0.3973312-1.7472801-0.6128445-2.0386391l-0.9210186-0.0252342
		c-0.1719913,0.0371895-0.6683044,1.9129257-0.7672863,1.9747124c-0.1067028,0.0652962-1.2242813-0.0287933-1.3267746-0.1207428
		c-0.1572475-0.1404076-0.1200409-1.7879868-0.2871151-2.1095085l-0.9048767-0.1684723
		c-0.1762009,0.0091286-0.9596329,1.7844734-1.0677414,1.8293762c-0.1151218,0.0484619-1.2039223-0.2189865-1.2909718-0.3264046
		c-0.1333809-0.1628609,0.1614628-1.7844734,0.0463333-2.127758l-0.8676691-0.3088837
		c-0.175499-0.0182495-1.2263918,1.6131744-1.3401165,1.6405525c-0.1214437,0.0295219-1.1547842-0.4050293-1.2249832-0.5243568
		c-0.1060019-0.181839,0.4387484-1.7374687,0.3797808-2.0947647l-0.8094034-0.4401627
		c-0.1698866-0.0456314-1.463665,1.401165-1.5801964,1.4102936c-0.1249571,0.0098534-1.077569-0.5812569-1.1274109-0.709713
		c-0.0765181-0.196537,0.7048044-1.6475754,0.7019978-2.0091171l-0.7300777-0.5615883
		c-0.1607552-0.0715981-1.6651402,1.1548004-1.7816725,1.1456757c-0.1242495-0.0098572-0.9729648-0.7427483-1.0024486-0.8774986
		c-0.04493-0.2057076,0.9540105-1.5163383,1.0080667-1.8743668L7.7431111,37.573391
		c-0.1481204-0.0961456-1.8251934,0.8796425-1.9389191,0.8529472c-0.1221447-0.0294762-0.8452067-0.8859367-0.8529248-1.0235176
		c-0.0119381-0.2105904,1.1793566-1.3485527,1.2888675-1.6939392l-0.5208859-0.7595406
		c-0.1312709-0.1179581-1.9410236,0.5833549-2.048429,0.5391388c-0.1158304-0.0477333-0.6963797-1.0066795-0.6830437-1.1442604
		c0.021059-0.2099037,1.3766167-1.1477737,1.5380785-1.4713936l-0.395227-0.8318672
		c-0.1109138-0.1368923-2.0084162,0.2730637-2.1080987,0.2120056c-0.1067039-0.0652962-0.5300064-1.1035557-0.4949096-1.2369366
		c0.0540563-0.2035637,1.5387803-0.9182014,1.7493817-1.213028l-0.2604427-0.88311
		c-0.0884514-0.1530476-2.0259616-0.0449467-2.1151199-0.1200562c-0.0954674-0.0814095-0.3509989-1.1730537-0.2955394-1.299408
		c0.0849433-0.1930237,1.6637368-0.6661777,1.9178598-0.9244995l-0.1193438-0.9133167
		c-0.0631771-0.1642742-1.994373-0.3608112-2.07019-0.4492893c-0.0814299-0.0954628-0.1628598-1.2130299-0.0884514-1.3295708
		c0.1137255-0.1769142,1.7472715-0.397316,2.0386014-0.6128349l0.025274-0.92103
		c-0.0372069-0.1719856-1.9136447-0.6683197-1.9747224-0.7672958c-0.0652821-0.1066875,0.0287822-1.2242546,0.1207469-1.3267422
		c0.1403974-0.1572914,1.7879865-0.1200562,2.1088002-0.287159l0.1691794-0.9055614
		c-0.0091262-0.175499-1.78518-0.9589062-1.8301046-1.0670509c-0.0477364-0.1151276,0.2197225-1.2039013,0.3271281-1.2916508
		c0.1628652-0.1333828,1.7844785,0.1621742,2.1277542,0.0470448l0.3088808-0.8676853
		c0.0182526-0.1754999-1.613194-1.2270823-1.6405675-1.3407974c-0.0294839-0.1214695,0.4050498-1.1548004,0.5243881-1.2242975
		c0.1818194-0.1060019,1.7374492,0.4387493,2.0947623,0.3790636l0.4401522-0.8086853
		c0.0456314-0.1705723-1.4011841-1.4643669-1.4103103-1.580224c-0.0098281-0.1249399,0.5812507-1.077548,0.7097211-1.1281071
		c0.1965585-0.0765238,1.6475887,0.705512,2.0091171,0.7027264l0.5615954-0.7301044
		c0.0716071-0.1614466-1.1547842-1.665103-1.145658-1.7816458c0.0098281-0.1249828,0.742713-0.9736876,0.8774972-1.0031662
		c0.2056851-0.0442176,1.5163126,0.9547071,1.8743334,1.0080509L9.231349,7.7434101
		c0.0961685-0.1481204-0.8796082-1.8251772-0.852931-1.9389348c0.0287828-0.1214271,0.8852205-0.845191,1.0235138-0.8529034
		c0.2106009-0.0119543,1.3485355,1.1793509,1.693922,1.288867l0.7595625-0.5208855
		c0.1179342-0.1312819-0.5833616-1.9403062-0.5391388-2.048408c0.0477362-0.1158571,1.006669-0.6963849,1.1442604-0.6823742
		c0.2098942,0.0210805,1.1477623,1.3759315,1.4713879,1.5373771l0.8318653-0.3952165
		c0.1375914-0.11093-0.273077-2.0084321-0.2120047-2.1074076c0.0652876-0.1073736,1.1035404-0.5306975,1.2369213-0.4956062
		c0.2035799,0.0540724,0.9182129,1.5387909,1.2130547,1.7493818l0.883812-0.2604213
		c0.1523361-0.0884781,0.0442295-2.0259991,0.1200409-2.1151199c0.0807343-0.0955049,1.1723404-0.3509989,1.2987003-0.2955555
		c0.1930447,0.0849218,0.6661949,1.6637315,0.9245262,1.9178544l0.9133015-0.1193278
		c0.1649704-0.0631986,0.3608265-1.9943782,0.4492779-2.0702167c0.0954723-0.0814084,1.2137566-0.1635453,1.3295879-0.0884353
		C23.0986137,0.3597926,23.3190365,1.9940457,23.5345554,2.2853594z"/>
	<path fill="none" stroke="#0069A9" stroke-width="0.433" d="M23.4004726,21.8921547
		c-0.8297672,0-1.5022812,0.6725197-1.5022812,1.5022869c0,0.8297653,0.672514,1.5029697,1.5022812,1.5029697
		c0.8297615,0,1.5022755-0.6732044,1.5022755-1.5029697C24.9027481,22.5646744,24.2302341,21.8921547,23.4004726,21.8921547z"/>
	<path fill="none" stroke="#0069A9" stroke-width="0.433" d="M23.4004726,21.0055313
		c-1.3197594,0-2.3889046,1.0698776-2.3889046,2.3889103c0,1.3197594,1.0691452,2.3895931,2.3889046,2.3895931
		c1.3197536,0,2.3888988-1.0698338,2.3888988-2.3895931C25.7893715,22.0754089,24.7202263,21.0055313,23.4004726,21.0055313z"/>
	<path fill="none" stroke="#0069A9" stroke-width="0.433" d="M23.4004726,20.3821564
		c-1.6637363,0-3.0129757,1.3492813-3.0129757,3.0130119c0,1.6637325,1.3492393,3.0122414,3.0129757,3.0122414
		c1.6637306,0,3.0129738-1.3485088,3.0129738-3.0122414C26.4134464,21.7314377,25.0642033,20.3821564,23.4004726,20.3821564z"/>
	<path fill="none" stroke="#0069A9" stroke-width="0.433" d="M23.3513317,27.2266369
		c0.6114368-0.0161114,0.7806225,0.3334732,1.0607147,0.7616825c0.0863476,0.1326962,5.1105499,8.7152863,5.1175652,8.7342682
		c0.4717464,1.2172699,0.1137257,1.6721725-0.7195473,2.2084846c-1.1884785,0.7644653-4.4457531,1.0073624-5.4587326,1.0073624
		c-1.0129833,0-4.2702522-0.242897-5.4587345-1.0073624c-0.8332748-0.5363121-1.1912899-0.9912148-0.7195492-2.2084846
		c0.007021-0.0189819,5.0312176-8.601572,5.1175652-8.7342682C22.5707054,27.5601101,22.7398911,27.2427883,23.3513317,27.2266369z"
		/>
	<path fill="#F04E39" d="M26.696352,25.3466587c0.2920265-0.5377254,0.6795311-0.5096169,1.1898861-0.5377254
		c0.1579494-0.0083981,10.1031532-0.0680828,10.1228065-0.0652542c1.2902718,0.2000504,1.505085,0.7377739,1.5528183,1.7276154
		c0.0680962,1.4117088-1.3506393,4.3537655-1.856781,5.2312641c-0.5068436,0.8768101-2.3453789,3.5767002-3.6019554,4.2239399
		c-0.8810043,0.4534874-1.4545364,0.5356255-2.2723656-0.4808655c-0.0126343-0.0161552-4.9336414-8.658474-5.0045414-8.7995682
		C26.5945587,26.1897926,26.4043198,25.8844242,26.696352,25.3466587"/>
	<path fill="#0069A9" d="M26.7405758,21.5102634c-0.3201122-0.5215702-0.1017933-0.843092,0.1298676-1.2993641
		c0.0709-0.1410942,4.9919071-8.7834148,5.0045414-8.7995672c0.8178291-1.0164919,1.3913612-0.9343548,2.2723656-0.4808674
		c1.2565765,0.6472406,3.0951118,3.3464441,3.6019554,4.2239418c0.5061417,0.8774977,1.9248772,3.8195562,1.856781,5.2312632
		c-0.0477371,0.9898415-0.2625465,1.527565-1.5528183,1.7276154c-0.0196533,0.0028286-9.964859-0.0568562-10.1228065-0.0652542
		C27.420105,22.0199242,27.0606823,22.0318775,26.7405758,21.5102634"/>
	<path fill="none" stroke="#0069A9" stroke-width="0.433" d="M23.440485,19.5537624
		c-0.6114407,0.0161514-0.7806263-0.3334332-1.0607185-0.7616405c-0.0863476-0.1326962-5.1105442-8.715332-5.1182671-8.7342701
		c-0.4710388-1.2172699-0.1130238-1.6721716,0.7202492-2.2084823c1.1884842-0.7644682,4.4457531-1.0073652,5.4587364-1.0073652
		c1.0129795,0,4.2702541,0.2421689,5.4587307,1.0073652c0.8332748,0.5363107,1.1912956,0.9912124,0.7195492,2.2084823
		c-0.0070152,0.0189381-5.0312176,8.6015739-5.1175652,8.7342701C24.2211075,19.2203293,24.0519218,19.5376511,23.440485,19.5537624
		z"/>
	<path fill="#F04E39" d="M20.0961685,21.4337406c-0.2920322,0.5377655-0.6795368,0.5096588-1.1898918,0.5377655
		c-0.1579494,0.0083981-10.1031523,0.0680847-10.1228085,0.0652561c-1.2902703-0.2000504-1.5050817-0.7377758-1.5528178-1.7276154
		c-0.0680938-1.4117088,1.3506465-4.3537674,1.8567815-5.2312641c0.5061417-0.876812,2.3453779-3.5767021,3.6019545-4.2239418
		c0.8810053-0.4534874,1.4538374-0.5356245,2.2723665,0.4808674c0.0126343,0.0161524,4.9336405,8.658474,5.0045424,8.7995663
		C20.1979542,20.5906487,20.3881931,20.8960152,20.0961685,21.4337406"/>
	<path fill="#0069A9" d="M20.051939,25.270134c0.3201065,0.5216141,0.1010857,0.8431339-0.1298733,1.299408
		c-0.0709,0.1410923-4.9919062,8.7834129-5.0045404,8.7995682c-0.8178282,1.0171776-1.3913622,0.9343529-2.2723675,0.4808655
		c-1.2565765-0.646553-3.0958128-3.3464432-3.6019535-4.2239418c-0.5061359-0.8767681-1.9248762-3.8195553-1.8567824-5.2312641
		c0.0477366-0.9898396,0.2625475-1.527565,1.5528178-1.7276154c0.0196562-0.0028267,9.96486,0.0568581,10.1228075,0.0652561
		C19.3724041,24.7605171,19.7318268,24.7485638,20.051939,25.270134"/>
	<line fill="none" stroke="#0069A9" stroke-width="0.433" x1="35.0171318" y1="21.9503841" x2="35.5401154" y2="22.516901"/>
	<path fill="#FFFFFF" d="M12.2759123,28.4930515H12.263979l-0.4794683,1.5801811h0.9659481L12.2759123,28.4930515
		 M11.4644032,31.0609303l-0.3081789,0.8627586H9.9235134l1.7184944-4.9645004h1.2685099l1.6826859,4.9645004h-1.2383242
		l-0.2906227-0.8627586H11.4644032z"/>
	<polyline fill="#FFFFFF" points="33.8616447,31.9433556 32.6415672,31.9433556 32.6415672,26.9689999 33.7338753,26.9689999 
		34.7756424,28.9823589 35.8167076,26.9689999 36.9090157,26.9689999 36.9090157,31.9433556 35.688942,31.9433556 
		35.7198296,29.2744007 35.709301,29.2596188 34.7756424,31.0827408 33.8412819,29.2596188 33.8307533,29.2744007 
		33.8616447,31.9433556 	"/>
	<rect x="22.9996319" y="7.2690129" fill="#0069A9" width="1.1613879" height="4.9643297"/>
	<path fill="none" stroke="#0069A9" stroke-width="0.289" d="M22.3011417,34.8980522
		c0.6289883,0,0.8753872,0.6262054,0.8753872,1.185009c0,0.5587616-0.2463989,1.1849632-0.8753872,1.1849632
		c-0.6289921,0-0.8753929-0.6262016-0.8753929-1.1849632C21.4257488,35.5242577,21.6721497,34.8980522,22.3011417,34.8980522z"/>
	<path fill="none" stroke="#0069A9" stroke-width="0.289" d="M22.3011417,36.6909676
		c0.2337608,0,0.2428875-0.4647141,0.2428875-0.6079063c0-0.1425095-0.0091267-0.6072235-0.2428875-0.6072235
		c-0.2337646,0-0.2428913,0.4647141-0.2428913,0.6072235C22.0582504,36.2262535,22.0673771,36.6909676,22.3011417,36.6909676z"/>
	<polygon fill="none" stroke="#0069A9" stroke-width="0.289" points="23.504364,37.2286911 23.504364,34.9373856 
		24.5980759,34.9373856 24.5980759,35.4786263 24.1242256,35.4786263 24.1242256,35.8099556 24.5678902,35.8099556 
		24.5678902,36.3505096 24.1242256,36.3505096 24.1242256,37.2286911 	"/>
	<polyline fill="#0069A9" points="19.5156136,42.9647293 19.1112595,42.8804932 19.5886173,40.5870895 19.9929657,40.6713257 
		19.5156136,42.9647293 	"/>
	<polyline fill="#0069A9" points="18.4584064,42.7449722 17.9213734,42.5821114 17.6300488,40.793438 17.6251316,40.7920265 
		17.1540928,42.3504829 16.7588654,42.2304268 17.4369984,39.988266 17.9536686,40.1447868 18.253418,41.9777184 
		18.259037,41.9791298 18.741312,40.3834839 19.1365337,40.5028114 18.4584064,42.7449722 	"/>
	<polyline fill="#0069A9" points="15.9459543,41.4118843 16.4380531,41.6217918 16.2590446,42.0416031 14.8950624,41.4603462 
		15.07407,41.0398483 15.5661736,41.2497559 16.3060741,39.5144272 16.6858559,39.6765594 15.9459543,41.4118843 	"/>
	<polyline fill="#0069A9" points="14.4254265,41.2258453 13.3064413,40.6172523 13.5338869,40.1981277 14.2899408,40.6094971 
		14.4991341,40.2262383 13.7845011,39.8373184 14.0126486,39.4189224 14.7265797,39.8071098 14.95403,39.3887596 
		14.156559,38.954895 14.3840046,38.5358124 15.5451088,39.1676254 14.4254265,41.2258453 	"/>
	<path fill="#0069A9" d="M12.9245548,39.2258987l-0.2014751-0.1368942c-0.1242552-0.0849228-0.2899265-0.190239-0.4338369,0.0203514
		c-0.1319733,0.1944389-0.0126343,0.3201065,0.1123219,0.4050713l0.2225342,0.1523209L12.9245548,39.2258987 M12.7195721,40.2599144
		l-0.5995092-0.4085426c-0.3165979-0.2162018-0.490695-0.5349388-0.1832228-0.9863281
		c0.1846256-0.2702332,0.4443674-0.4022408,0.6963854-0.3018532l0.1635609-1.0859871l0.4092655,0.278717l-0.2035751,0.9947243
		l0.1677771,0.114399l0.5279007-0.7735939l0.3411713,0.2330856L12.7195721,40.2599144z"/>
	<polyline fill="#0069A9" points="11.0439072,39.0826607 10.6191969,38.7162399 11.0783024,36.9626579 11.0747948,36.9591446 
		10.0112686,38.1918411 9.6988792,37.9222908 11.228528,36.1483154 11.6377926,36.5014572 11.1681576,38.2985687 
		11.1716709,38.3020401 12.2611675,37.0391808 12.5735559,37.3087311 11.0439072,39.0826607 	"/>
	<path fill="#0069A9" d="M9.1653538,36.3814011l0.6914682-0.3222046l-0.3088799-0.3383598L9.1653538,36.3814011
		 M8.7687292,36.958416l-0.230258-0.2527084l1.1821632-2.1811028l0.3137922,0.3439713l-0.2583323,0.454216l0.490695,0.5377235
		l0.4717455-0.2190323l0.3067703,0.3369446L8.7687292,36.958416z"/>
	<polyline fill="#0069A9" points="7.8385839,35.1416359 8.1565857,35.5713005 7.7894387,35.8429489 6.907732,34.6516418 
		7.2748785,34.3799973 7.5928802,34.8096199 9.1091986,33.6871262 9.3548965,34.0191422 7.8385839,35.1416359 	"/>
	<polyline fill="#0069A9" points="6.6634369,34.2606239 6.4416041,33.9124527 8.4177246,32.6551666 8.6395569,33.0033798 
		6.6634369,34.2606239 	"/>
	<path fill="#0069A9" d="M7.3731527,31.6562405c-0.1614566-0.3130798-0.5496626-0.372036-0.9371667-0.1713009
		c-0.388206,0.2000942-0.5644069,0.5510941-0.402945,0.8634872c0.1614566,0.3130798,0.5496626,0.372036,0.9378681,0.171257
		C7.3591151,32.3189468,7.535316,31.9686356,7.3731527,31.6562405 M5.6097383,32.5674171
		c-0.2688675-0.5201569-0.03861-1.1189823,0.6289878-1.4636402c0.6668954-0.3446999,1.2895684-0.1867256,1.5577345,0.3334332
		c0.2688622,0.5194702,0.03861,1.1189804-0.6282911,1.4636803C6.5005717,33.2455482,5.8786006,33.0869293,5.6097383,32.5674171z"/>
	<polyline fill="#0069A9" points="4.9498644,31.0567322 4.7575154,30.5295486 6.014092,29.2238426 6.0126891,29.218914 
		4.4823332,29.7763062 4.341229,29.3881168 6.5426955,28.5857277 6.7280226,29.0932465 5.4405589,30.4326725 5.4426637,30.4375992 
		7.0102262,29.8668842 7.1513252,30.2543869 4.9498644,31.0567322 	"/>
	<path fill="#0069A9" d="M4.6290455,27.7812424l0.7609653,0.0568562l-0.1038976-0.4465027L4.6290455,27.7812424
		 M4.0007596,28.0900803l-0.0772202-0.3327465l2.0975688-1.3246441l0.1060023,0.454174l-0.4471731,0.2695904l0.1649699,0.7090244
		l0.518775,0.0392895l0.1031909,0.443676L4.0007596,28.0900803z"/>
	<polyline fill="#0069A9" points="3.6722229,26.4544125 3.6195698,26.0451851 5.4714408,25.8071728 5.3738627,25.0476322 
		5.8463049,24.9872608 5.9965358,26.155386 3.6722229,26.4544125 	"/>
	<path fill="#0069A9" d="M4.1306276,22.9865837l0.7230568,0.242897l0.0098281-0.4577293L4.1306276,22.9865837 M3.4454789,23.1304626
		l0.0070162-0.3411446l2.3608179-0.7644672l-0.0098276,0.4653988l-0.4998212,0.1509495L5.2875166,23.368475l0.492805,0.1670589
		l-0.0098281,0.4549026L3.4454789,23.1304626z"/>
	<path fill="#0069A9" d="M4.2099576,20.6271534c-0.1130238,0.0526581-0.1790128,0.1776409-0.1909456,0.2780304
		c-0.0147443,0.1151295,0.0308871,0.2836018,0.2049832,0.3053684c0.4240046,0.0526161,0.2576313-0.8375225,1.0719514-0.7364044
		c0.518775,0.0645695,0.7237582,0.428894,0.6767235,0.8122005c-0.0301852,0.2393837-0.1446123,0.4380627-0.3699532,0.5889683
		l-0.3650365-0.3411446c0.1488223-0.0673981,0.2478032-0.1937523,0.2646527-0.3299618
		c0.016849-0.1340656-0.0435214-0.2941418-0.2077899-0.3144932c-0.426816-0.0526581-0.3053727,0.8480186-1.0803757,0.7518291
		c-0.4963131-0.0617428-0.7125275-0.4380207-0.6676028-0.8030739c0.0259757-0.2105904,0.1207469-0.4043427,0.3137972-0.5398235
		L4.2099576,20.6271534"/>
	<path fill="#0069A9" d="M4.5377874,18.8981228c-0.117239,0.0421619-0.1944537,0.1607609-0.215518,0.2590504
		c-0.025269,0.1137161,0.0049167,0.2857018,0.176908,0.3236198c0.4169827,0.0905781,0.3320446-0.811512,1.1344266-0.6366997
		c0.5103507,0.1116161,0.6816406,0.4927788,0.5988021,0.870472c-0.0512447,0.2358704-0.1832175,0.4233227-0.4218993,0.5531921
		l-0.3320446-0.3734951c0.1544404-0.0526142,0.2646523-0.1698856,0.2934346-0.3039532
		c0.0287819-0.1319675-0.0161481-0.2969265-0.1783061-0.3320599c-0.4197946-0.0912209-0.3811841,0.8171253-1.1442599,0.650753
		c-0.4878883-0.1066875-0.6697023-0.5012188-0.591079-0.8606167c0.0449247-0.207119,0.1565454-0.3917446,0.3615286-0.5096588
		L4.5377874,18.8981228"/>
	<path fill="#0069A9" d="M6.310328,17.6324368c0.1123219-0.3334751-0.1151233-0.652853-0.5286036-0.7925758
		c-0.414176-0.1389942-0.7890458-0.0224514-0.9013629,0.3117085c-0.1123219,0.3334332,0.115129,0.652853,0.529305,0.7925339
		C5.8231411,18.0830975,6.1980109,17.9665966,6.310328,17.6324368 M4.4289789,16.9992065
		c0.1867304-0.5545616,0.7778091-0.805172,1.489635-0.5657883c0.7118258,0.2400703,1.0305347,0.7967758,0.8438039,1.3513374
		c-0.1874323,0.5546055-0.7778149,0.8052158-1.4896407,0.5651035C4.5609512,18.1104755,4.2422428,17.5538139,4.4289789,16.9992065z"
		/>
	<path fill="#0069A9" d="M6.1320271,14.6454325c-0.1460156,0.0217657-0.2597408,0.0997038-0.3257298,0.2380123
		c-0.1333814,0.2821875,0.0547576,0.6261597,0.4492779,0.8136129c0.394526,0.1874113,0.7799196,0.1158142,0.9083843-0.1544619
		c0.0716076-0.1509056,0.0456319-0.3123941-0.0617738-0.4570007l0.4373455-0.1733999
		c0.1846256,0.2604637,0.1874323,0.5546055,0.07722,0.7869625c-0.2506146,0.5285969-0.8662663,0.7076111-1.5451002,0.3854046
		c-0.6781268-0.3222494-0.9294434-0.912632-0.6781268-1.4412298c0.0891528-0.1888247,0.2836065-0.3896036,0.5819526-0.4240093
		L6.1320271,14.6454325"/>
	<polyline fill="#0069A9" points="5.9881163,13.6338253 6.1938014,13.2758427 8.2246799,14.4446535 8.0189943,14.8026791 
		5.9881163,13.6338253 	"/>
	<path fill="#0069A9" d="M7.5254879,12.4594011l0.469636,0.6009226l0.2604427-0.3769636L7.5254879,12.4594011 M6.8747401,12.2024508
		l0.1944485-0.2807741l2.3903069,0.6605654l-0.264658,0.3833055L8.694315,12.816699l-0.4134741,0.5988226l0.3194046,0.4106846
		l-0.2590342,0.374136L6.8747401,12.2024508z"/>
	<polyline fill="#0069A9" points="8.4366846,10.8876181 8.0891933,11.2941036 7.7417026,10.9971342 8.7055464,9.8704414 
		9.0523357,10.1674109 8.7048445,10.5738535 10.1390257,11.7988358 9.8708658,12.1133299 8.4366846,10.8876181 	"/>
	<polyline fill="#0069A9" points="9.0298729,9.5446787 9.3190928,9.2505798 10.9891443,10.89396 10.6999245,11.1880589 
		9.0298729,9.5446787 	"/>
	<path fill="#0069A9" d="M11.7269459,9.6521378c0.2681656-0.228157,0.2379808-0.619175-0.0449247-0.9519215
		c-0.2829046-0.3327465-0.6640892-0.4261093-0.9322548-0.1979513c-0.2681608,0.228158-0.2379751,0.6191759,0.0449295,0.9519224
		C11.0776014,9.7869329,11.4587851,9.8795681,11.7269459,9.6521378 M10.4408903,8.1393118
		c0.4457655-0.3790631,1.0810719-0.2892137,1.5682592,0.2829161c0.4864845,0.5721302,0.4724474,1.2137575,0.0266771,1.5928631
		c-0.4457703,0.3783779-1.0810776,0.2892141-1.568264-0.2829151C9.9810772,9.159317,9.99512,8.5184183,10.4408903,8.1393118z"/>
	<polyline fill="#0069A9" points="11.7634506,7.1558123 12.2337885,6.8490739 13.7908163,7.7770877 13.7950306,7.7743025 
		12.9056005,6.4110107 13.2516832,6.1849527 14.5321255,8.1470671 14.079339,8.4418945 12.482995,7.4928007 12.4780836,7.4955854 
		13.3899755,8.8918686 13.0438938,9.1179276 11.7634506,7.1558123 	"/>
	<path fill="#0069A9" d="M16.3797874,6.782362c0.3243198-0.1368947,0.4127712-0.5194716,0.2421894-0.9217148
		c-0.1698875-0.4022436-0.5054398-0.6051221-0.8304625-0.4682703c-0.3243275,0.1368947-0.4127789,0.5195146-0.2421904,0.9217582
		C15.7192049,6.7163782,16.0554657,6.9192567,16.3797874,6.782362 M15.6061869,4.9536285
		c0.5391321-0.2281151,1.1182795,0.0477738,1.4110117,0.7399168c0.2927322,0.6921859,0.0870476,1.3000932-0.4520855,1.5275655
		c-0.5391312,0.2281575-1.1182833-0.0484595-1.4110165-0.7399173C14.8613634,5.7890077,15.067049,5.1811008,15.6061869,4.9536285z"
		/>
	<polyline fill="#0069A9" points="17.1554966,4.4257159 18.3608227,4.0677333 18.4963093,4.5247345 17.6869068,4.7648034 
		17.8223915,5.2218051 18.5714245,4.9992599 18.7069111,5.4562612 17.9578781,5.6788063 18.2176151,6.554204 17.8216915,6.6721177 
		17.1554966,4.4257159 	"/>
	<polyline fill="#0069A9" points="19.9662991,3.7047799 20.5868626,3.631084 21.1961994,5.0982785 21.2011108,5.0975499 
		21.451725,3.528595 22.0694809,3.4548988 22.3460732,5.7812953 21.9361057,5.83044 21.7241001,4.0459671 21.718483,4.0466952 
		21.4418983,5.8887115 21.1288071,5.9259024 20.4464645,4.1976008 20.4408474,4.1982865 20.653553,5.9828024 20.2428856,6.031219 
		19.9662991,3.7047799 	"/>
	<path fill="#0069A9" d="M23.5843906,4.1210771l-0.2351685,0.7258635l0.4584045,0.0049272L23.5843906,4.1210771
		 M23.4327621,3.4380174l0.3411655,0.0035133l0.7918587,2.3517184L24.099659,5.788322l-0.1565456-0.4984341l-0.7279739-0.0077124
		l-0.1614571,0.4949207l-0.454895-0.0049276L23.4327621,3.4380174z"/>
	<path fill="#0069A9" d="M26.2456703,4.2495308c-0.0666904-0.1312389-0.1769085-0.2147894-0.329237-0.2330422
		c-0.3095837-0.037919-0.5763397,0.2499242-0.628994,0.6837454c-0.0526466,0.4338212,0.1382923,0.7771077,0.4352417,0.8129277
		c0.1649685,0.0196233,0.3102837-0.0561719,0.4134731-0.2036071l0.3032627,0.3601255
		c-0.1888351,0.2576361-0.4668293,0.3538265-0.721653,0.3229342c-0.5805492-0.0701828-0.9462929-0.5980949-0.855732-1.3443103
		c0.0898552-0.7455301,0.5707226-1.1709535,1.1512756-1.100771c0.2077904,0.0252795,0.4598083,0.1460211,0.5868702,0.4183967
		L26.2456703,4.2495308"/>
	<polyline fill="#0069A9" points="27.2263584,3.7897019 27.6286011,3.8852067 27.4264259,4.7353253 28.2070465,4.9206367 
		28.4092236,4.070518 28.8107643,4.1659803 28.2702293,6.445374 27.868681,6.3499117 28.1017456,5.3649979 27.321125,5.1796865 
		27.0880604,6.1646004 26.6858177,6.0690956 27.2263584,3.7897019 	"/>
	<polyline fill="#0069A9" points="29.4355488,4.3688588 29.8279629,4.4980412 29.0957794,6.7233624 28.7033596,6.5942225 
		29.4355488,4.3688588 	"/>
	<polyline fill="#0069A9" points="30.4611664,4.7051182 30.9764271,4.9269776 31.0648785,6.7374158 31.0697956,6.7395153 
		31.7128258,5.2442565 32.0926056,5.4071164 31.1666718,7.5594697 30.6710606,7.3460512 30.5783997,5.4906669 30.5734825,5.4885674 
		29.9143047,7.0210171 29.5352306,6.8574719 30.4611664,4.7051182 	"/>
	<polyline fill="#0069A9" points="32.6766701,5.7237096 33.0403023,5.9196038 31.9269352,7.9813371 31.5639992,7.7854853 
		32.6766701,5.7237096 	"/>
	<path fill="#0069A9" d="M34.0680313,7.2084279c0.0007019-0.1249404-0.08424-0.2379694-0.1691856-0.2913136
		c-0.098278-0.06247-0.2702713-0.0933623-0.3643341,0.0547581c-0.2281532,0.3601251,0.6472397,0.5910683,0.2077904,1.2839394
		c-0.280098,0.441577-0.6970825,0.471055-1.0235138,0.263978c-0.202877-0.1291828-0.3341484-0.3180075-0.3741646-0.5868692
		l0.4647217-0.1832118c-0.0028076,0.1628594,0.0687943,0.3067384,0.1853256,0.3804774
		c0.1137276,0.0722818,0.2836113,0.0863352,0.3720627-0.0533438c0.2302551-0.3636389-0.6353111-0.6388426-0.2169189-1.2987223
		c0.2674637-0.4219098,0.700592-0.4570012,1.0108795-0.2597356c0.1790047,0.1137147,0.3137894,0.2815018,0.3538055,0.5152726
		L34.0680313,7.2084279"/>
	<polyline fill="#0069A9" points="35.114006,7.8079371 34.6907005,7.4815321 34.9686928,7.1199927 36.1431313,8.0241833 
		35.8651428,8.3864079 35.4411354,8.0599604 34.2905617,9.5552197 33.9634285,9.303196 35.114006,7.8079371 	"/>
	<path fill="#0069A9" d="M36.813549,9.4028997c0.0231628-0.1228409-0.04002-0.2491951-0.1144295-0.3172789
		c-0.0849419-0.0793085-0.2485085-0.1404076-0.3678474-0.0112257c-0.2899284,0.3130798,0.5307083,0.6977558-0.0266762,1.3000927
		c-0.3552094,0.3839912-0.7707939,0.3376741-1.0544014,0.0751104c-0.1769028-0.1635456-0.2716751-0.3727655-0.2632484-0.6437263
		l0.489994-0.0968761c-0.0315895,0.1593456,0.01334,0.3138075,0.1144257,0.4071703
		c0.0989799,0.0919485,0.2639503,0.1361666,0.3762741,0.0140114c0.2920303-0.3151798-0.5110588-0.7420168,0.0196533-1.3155184
		c0.3390656-0.3671513,0.7714958-0.3236198,1.0417671-0.0737381c0.1551399,0.1439209,0.2576294,0.3334742,0.2555275,0.5700302
		L36.813549,9.4028997"/>
	<path fill="#0069A9" d="M38.4758759,11.3923941l-0.7118263,0.2744741l0.2850113,0.3587122L38.4758759,11.3923941
		 M38.9104156,10.843401l0.2126999,0.2674904l-1.3267746,2.0968676l-0.2899208-0.3650522l0.2878151-0.435235l-0.4527855-0.5700312
		l-0.4857826,0.1867256l-0.2836075-0.3566122L38.9104156,10.843401z"/>
	<polyline fill="#0069A9" points="39.9311142,12.1877117 40.2252502,12.6657934 39.2571945,14.1975574 39.259304,14.2024851 
		40.6457481,13.3488531 40.8626633,13.7005377 38.8675842,14.9283476 38.5846786,14.4685192 39.575901,12.8974648 
		39.5730972,12.8932228 38.1529503,13.7672062 37.9360352,13.4155216 39.9311142,12.1877117 	"/>
	<path fill="#0069A9" d="M39.6769943,15.4962358l0.0891533,0.1951666c0.1600571,0.3488998,0.4457703,0.5356255,0.9301491,0.3137646
		c0.4176903-0.1916094,0.490696-0.5482206,0.3453789-0.8662281l-0.1017876-0.2211313L39.6769943,15.4962358 M41.2010345,14.3435354
		l0.2583313,0.5630035c0.2513161,0.5489931,0.1705818,1.1421614-0.6086311,1.4995012
		c-0.6886597,0.3151779-1.2649994,0.0350914-1.4980621-0.4724693l-0.2807999-0.6135197L41.2010345,14.3435354z"/>
	<path fill="#0069A9" d="M42.006218,18.3723545l-0.7623711-0.0308933l0.1186371,0.4422626L42.006218,18.3723545
		 M42.6232758,18.0423927l0.0884514,0.3299618l-2.051239,1.3941822l-0.1207428-0.4492874l0.4373474-0.2850151L40.78825,18.3295498
		l-0.5201797-0.0224934l-0.1179352-0.439436L42.6232758,18.0423927z"/>
	<polyline fill="#0069A9" points="43.012886,19.6773319 43.209446,20.9353485 42.7383995,21.0083599 42.6057243,20.158926 
		42.1739922,20.2263241 42.2989502,21.0287113 41.8279114,21.1024075 41.7029533,20.2993336 41.2319145,20.3730297 
		41.3723145,21.270195 40.9012756,21.3432045 40.6976929,20.0381851 43.012886,19.6773319 	"/>
	<path fill="#0069A9" d="M42.3354607,22.083807l0.0133362,0.242897c0.0084229,0.1509495,0.0259743,0.3460712,0.280098,0.3320618
		c0.2344666-0.01264,0.261837-0.1839409,0.253418-0.3348885l-0.01474-0.2695484L42.3354607,22.083807 M43.2810516,21.6183662
		l0.0400085,0.7244911c0.0210571,0.3825779-0.1263542,0.7146378-0.6718063,0.7441158
		c-0.3271332,0.0182533-0.5889816-0.1081009-0.6633873-0.3692513l-0.9617424,0.5300121L40.9967461,22.7535l0.9140053-0.4422207
		l-0.0112343-0.2036057l-0.9350586,0.0512447l-0.0231667-0.4127846L43.2810516,21.6183662z"/>
	<path fill="#0069A9" d="M41.3905716,24.4621773c-0.020359,0.3517265,0.2829056,0.600193,0.7188454,0.625473
		c0.4359436,0.02528,0.7665863-0.185997,0.7876434-0.5377235c0.0203514-0.3509998-0.2836075-0.5995102-0.7195473-0.6254749
		C41.7415695,23.8991737,41.4109268,24.1104927,41.3905716,24.4621773 M43.3723145,24.5779915
		c-0.0344048,0.5840836-0.537735,0.9813995-1.287468,0.9379101c-0.7497292-0.04426-1.2039261-0.4977474-1.1695251-1.081789
		c0.0336952-0.5840855,0.5377312-0.9814014,1.2874641-0.9378681C42.9525146,23.5404625,43.4067116,23.9939499,43.3723145,24.5779915
		z"/>
	<path fill="#0069A9" d="M42.4421654,27.0005779c0.1151237-0.0477314,0.1867294-0.1698437,0.2035751-0.2688618
		c0.0189514-0.1151295-0.0189552-0.2849731-0.1923447-0.3144951c-0.4204979-0.0715961-0.2941399,0.8255672-1.1028366,0.6879883
		c-0.5159721-0.0870647-0.7041092-0.460516-0.6395226-0.840992c0.0400124-0.2379704,0.1635666-0.4317226,0.3952217-0.5721302
		l0.3488922,0.3572979c-0.1509247,0.0603695-0.2555237,0.1818409-0.2786903,0.3180065
		c-0.0224648,0.1326962,0.0308876,0.2948265,0.1937523,0.3222065c0.4240036,0.0723248,0.3425751-0.8332367,1.1126671-0.7026844
		c0.492794,0.0835514,0.6921692,0.4696407,0.6310921,0.8318653c-0.0351028,0.209177-0.138298,0.3987312-0.3376617,0.5258141
		L42.4421654,27.0005779"/>
	<path fill="#0069A9" d="M41.7633324,28.111845l-0.0723038,0.266077c-0.0372086,0.1404095-0.0147476,0.2976551,0.1958542,0.3545132
		c0.2337685,0.0624695,0.3166008-0.1179562,0.3580208-0.2709618l0.0547523-0.2050209L41.7633324,28.111845 M42.828968,27.9714375
		l-0.181118,0.6725197c-0.1017914,0.3755932-0.3355522,0.6472397-0.8725853,0.5026321
		c-0.5300064-0.1431923-0.6149521-0.4759388-0.512455-0.8571453l0.0786209-0.2913132l-0.8817062-0.2372837l0.1074066-0.3987293
		L42.828968,27.9714375z"/>
	<path fill="#0069A9" d="M41.3652954,30.3610325l-0.595993-0.4759388l-0.1656723,0.4267941L41.3652954,30.3610325
		 M42.0581741,30.4600086l-0.1235542,0.3180065l-2.4787521-0.0891209l0.1684761-0.4338646l0.5215836,0.0287933l0.2639503-0.678133
		l-0.4057503-0.3250332l0.1649704-0.4246941L42.0581741,30.4600086z"/>
	<path fill="#0069A9" d="M40.3038826,32.8061142c0.1467171-0.0161095,0.2632484-0.0891228,0.3348503-0.2253304
		c0.1446114-0.2765732-0.0294838-0.627573-0.4169884-0.830452c-0.3868027-0.202879-0.7750053-0.1467056-0.9140015,0.1186428
		c-0.0772209,0.1473904-0.0582695,0.3102932,0.0435257,0.4591007l-0.4443665,0.1558342
		c-0.1733971-0.2674484-0.1649704-0.5622768-0.0456276-0.7897491c0.2709656-0.5180588,0.8943405-0.6725197,1.5598412-0.3236198
		c0.6654892,0.3482132,0.8929367,0.9484062,0.6212616,1.4671936c-0.0968742,0.1846275-0.2990456,0.3776512-0.5988007,0.4001427
		L40.3038826,32.8061142"/>
	<polyline fill="#0069A9" points="40.3810997,33.8801498 39.6769943,34.9415855 39.2803688,34.6783371 39.7556152,33.9609146 
		39.391983,33.7201157 38.9427032,34.3975639 38.545372,34.1343155 38.9946518,33.4568672 38.5980263,33.1936188 
		38.0953941,33.9503746 37.698761,33.6871262 38.4288406,32.5856667 40.3810997,33.8801498 	"/>
	<polyline fill="#0069A9" points="38.7608871,36.1862335 38.4505997,36.5119972 37.1568184,35.6920433 37.1533089,35.6962433 
		37.9704323,37.0160027 37.70578,37.2939911 36.3214378,36.5119972 36.3179321,36.5155106 37.2164879,37.8078918 
		36.9279671,38.1104317 35.6103134,36.0978012 35.8637352,35.8310356 37.3224907,36.6509933 37.3259964,36.6467514 
		36.4372673,35.2294273 36.6815643,34.9725227 38.7608871,36.1862335 	"/>
	<path fill="#0069A9" d="M34.5839958,37.5242462c-0.2758827,0.2190323-0.2590408,0.6107368,0.0126343,0.9533386
		c0.2709732,0.342556,0.6486473,0.4485588,0.92453,0.2295265c0.2758865-0.2190323,0.2590408-0.610733-0.0119324-0.9532928
		C35.2375565,37.4119453,34.8598785,37.3059425,34.5839958,37.5242462 M35.8174095,39.0805626
		c-0.4584122,0.3636398-1.0902061,0.2520218-1.5570335-0.336216c-0.4668312-0.5890121-0.4303246-1.2299118,0.0273781-1.5935516
		c0.4584045-0.3629532,1.0909042-0.2520218,1.5570259,0.3369484C36.3116112,38.0760269,36.2758141,38.7169685,35.8174095,39.0805626
		z"/>
	<path fill="#0069A9" d="M33.6117325,39.3929558l-0.2070885,0.1284561
		c-0.1277618,0.0800362-0.2906303,0.1888657-0.1565475,0.4050713c0.1235504,0.2000504,0.287117,0.1410942,0.4148788,0.0617828
		l0.229557-0.1425056L33.6117325,39.3929558 M34.4737892,39.998764l-0.6163597,0.382618
		c-0.3257256,0.2028809-0.687252,0.2330437-0.9750748-0.2309837c-0.1733894-0.2786751-0.1881332-0.5693016,0.0049171-0.7595406
		l-0.9259357-0.5889702l0.420496-0.2611504l0.826252,0.5889702l0.1733894-0.1081009l-0.4942017-0.7953606l0.3509979-0.217617
		L34.4737892,39.998764z"/>
	<polyline fill="#0069A9" points="32.7131767,41.0517616 32.3411102,41.2307739 31.9192123,40.3546906 31.6854477,41.5466805 
		31.1989613,41.7811394 31.4783592,40.4382401 30.1192875,39.7011528 30.6387711,39.4505424 31.8075981,40.1216469 
		31.3253212,39.1198959 31.6973801,38.9408836 32.7131767,41.0517616 	"/>
	<polyline fill="#0069A9" points="30.6858044,41.9777184 29.4867916,42.4052391 29.3267345,41.9559937 30.1368389,41.6674652 
		29.9901218,41.2560959 29.224947,41.5291557 29.064888,41.0798683 29.8300686,40.8068085 29.6700096,40.3582458 
		28.8149796,40.6628838 28.6549206,40.214325 29.8988647,39.770649 30.6858044,41.9777184 	"/>
	<path fill="#0069A9" d="M28.194418,41.7607841l-0.2358761,0.0582733c-0.1467171,0.03582-0.3355522,0.0891647-0.2744808,0.3369865
		c0.0561619,0.2281151,0.229557,0.2225037,0.3762741,0.1867256l0.2618446-0.0646133L28.194418,41.7607841 M28.8276196,42.603878
		l-0.7041073,0.1734009c-0.3727608,0.0912628-0.7258644,0.0077553-0.8564396-0.5222588
		c-0.0786228-0.3180084-0.0028057-0.5988235,0.2393837-0.7202492l-0.6991901-0.8466072l0.4808712-0.1186409l0.6044216,0.815712
		l0.1979599-0.0484581L27.8665829,40.4277l0.4008389-0.0989761L28.8276196,42.603878z"/>
	<path fill="#0069A9" d="M25.8609734,42.6172028c0.0807285,0.0955048,0.2190208,0.1249847,0.3187027,0.1109276
		c0.1151295-0.0168381,0.2653542-0.105999,0.2400856-0.2793999c-0.061779-0.422596-0.8760948-0.0259666-0.9947319-0.8381653
		c-0.0751152-0.5173721,0.2218342-0.811512,0.6044216-0.8676834c0.2379742-0.0344086,0.4605083,0.0231781,0.665493,0.200779
		l-0.2323627,0.4422607c-0.1038933-0.1256676-0.252018-0.1874542-0.3882065-0.1677856
		c-0.1333752,0.0196648-0.2716675,0.1200562-0.2478027,0.2835999c0.0624752,0.4261093,0.8985558,0.0694962,1.0115795,0.8424072
		c0.0716019,0.4949188-0.2337646,0.8037987-0.5981045,0.8564568c-0.2091942,0.0308495-0.4211979-0.0084381-0.6037197-0.1593895
		L25.8609734,42.6172028"/>
	<polyline fill="#0069A9" points="22.9834843,40.5400009 23.329567,41.5326271 24.3804588,41.5551224 23.5429745,42.1911354 
		23.8469391,43.197773 22.9834843,42.59758 22.1200237,43.197773 22.4239883,42.1911354 21.586504,41.5551224 
		22.6373959,41.5326271 22.9834843,40.5400009 	"/>
	<path fill="#FFFFFF" d="M23.6033516,18.6994438c-1.3281841,0.6170769-2.9975357,1.561285-4.3769588,3.6714783
		c-1.7360401,2.6577721-2.5040264,4.8760662-1.6763706,7.1568737c0.8276558,2.2807655,2.7019901,3.6384449,4.8009605,4.3601093
		c0.0961761,0.0329895-4.4197769,0.7237625-7.129488-4.4450741c-2.2141008-4.2238979,1.6798782-9.7072296,2.4352322-10.9223576
		c0.9624348-1.5500164,2.348177-3.3962736,3.3302746-4.5286226L23.6033516,18.6994438z"/>
	<path fill="none" stroke="#0069A9" stroke-width="0.433" d="M23.6033516,18.6994438
		c-1.3281841,0.6170769-2.9975357,1.561285-4.3769588,3.6714783c-1.7360401,2.6577721-2.5040264,4.8760662-1.6763706,7.1568737
		c0.8276558,2.2807655,2.7019901,3.6384449,4.8009605,4.3601093c0.0961761,0.0329895-4.4197769,0.7237625-7.129488-4.4450741
		c-2.2141008-4.2238979,1.6798782-9.7072296,2.4352322-10.9223576c0.9624348-1.5500164,2.348177-3.3962736,3.3302746-4.5286226
		L23.6033516,18.6994438z"/>
	<circle fill="none" stroke="#0069A9" stroke-width="0.433" cx="23.3267593" cy="15.5151739" r="0.8774973"/>
	<path fill="none" stroke="#0069A9" stroke-width="0.433" d="M23.3323784,13.9588594
		c-0.8683758,0-1.5717773,0.7041397-1.5717773,1.5725107c0,0.8676434,0.7034016,1.5717411,1.5717773,1.5717411
		c0.868372,0,1.5724735-0.7040977,1.5724735-1.5717411C24.9048519,14.6629992,24.2007504,13.9588594,23.3323784,13.9588594z"/>
	<polygon fill="#FFFFFF" points="23.2130394,33.863308 21.1203823,31.5411129 34.1501617,19.5734711 36.2428207,21.895668 	"/>
	<polygon fill="none" stroke="#0069A9" stroke-width="0.433" points="23.2130394,33.863308 21.1203823,31.5411129 
		34.1501617,19.5734711 36.2428207,21.895668 	"/>
	<polygon fill="#FFFFFF" points="22.6858406,33.2279816 24.9329319,31.0553188 15.2720375,20.7359409 13.0249443,22.9086456 	"/>
	<polygon fill="none" stroke="#0069A9" stroke-width="0.433" points="22.6858406,33.2279816 24.9329319,31.0553188 
		15.2720375,20.7359409 13.0249443,22.9086456 	"/>
	<line fill="none" stroke="#0069A9" stroke-width="0.433" x1="33.978878" y1="22.0641403" x2="34.9237633" y2="23.0946865"/>
	<line fill="none" stroke="#0069A9" stroke-width="0.433" x1="32.5608444" y1="23.3389549" x2="33.5057297" y2="24.3694992"/>
	<line fill="none" stroke="#0069A9" stroke-width="0.433" x1="33.6327972" y1="23.2378788" x2="34.1557808" y2="23.8043957"/>
	<line fill="none" stroke="#0069A9" stroke-width="0.433" x1="32.3916664" y1="24.3561745" x2="32.91465" y2="24.9226913"/>
	<line fill="none" stroke="#0069A9" stroke-width="0.433" x1="28.3425426" y1="28.0781689" x2="28.8655281" y2="28.6446857"/>
	<line fill="none" stroke="#0069A9" stroke-width="0.433" x1="27.0066414" y1="29.2680607" x2="27.5296268" y2="29.8345776"/>
	<line fill="none" stroke="#0069A9" stroke-width="0.433" x1="27.2368984" y1="28.2592812" x2="28.1817837" y2="29.2898254"/>
	<line fill="none" stroke="#0069A9" stroke-width="0.433" x1="28.6086044" y1="26.9921799" x2="29.5534878" y2="28.0227242"/>
	<line fill="none" stroke="#0069A9" stroke-width="0.433" x1="25.9052124" y1="29.4863625" x2="26.8500957" y2="30.5169086"/>
	<line fill="none" stroke="#0069A9" stroke-width="0.433" x1="25.7170773" y1="30.51618" x2="26.2400627" y2="31.0826969"/>
	<path fill="#0069A9" d="M36.1396255,22.060627l0.8859138,0.01264c0,0-1.4678726,0.8711987-1.9368057,1.4433289
		c-0.6332016,0.7721806-0.8101044,1.2790546-0.8101044,1.2790546l-1.0761681-0.0505581L36.1396255,22.060627"/>
	<path fill="#0069A9" d="M26.6563396,31.7720547l-0.4303303-0.6584644l2.1017838-1.9620724l0.4998207,1.0242043
		l-0.2344666,0.4317207c0,0-0.0884514-1.0382137-1.1646118-0.0505161
		C26.9589005,30.9872341,26.6563396,31.7720547,26.6563396,31.7720547"/>
	<path fill="#0069A9" d="M27.5640221,33.3290977l0.8101044,1.3506546c0,0,0.1172333-1.0277176,0.6921692-1.4011688
		c1.0129795-0.6584663,1.4854259-0.05056,1.4854259-0.05056l-0.8101044-1.4180069c0,0-0.5742359,0.5735016-0.9624405,0.8269386
		C28.3909702,32.8903503,27.5640221,33.3290977,27.5640221,33.3290977"/>
	<path fill="#0069A9" d="M18.1944561,29.5474186c0,0,0.6416206,0.1347961,1.1477623,0.7764225
		c0.5068417,0.6416283,0.6247768,1.3000927,0.6247768,1.5366917c0,0.2358723,0.6247787-0.8782253,0.6247787-0.8782253
		l-2.0091171-2.1438694l-0.4387493,0.6921425"/>
	<path fill="#0069A9" d="M18.5152702,34.3925934l0.6247768-1.0972137c0,0-0.810812-0.4724274-1.1653194-0.7427025
		s-0.9448891-0.8781834-0.9448891-0.8781834l-0.6247787,1.0298176c0,0,0.4921036-0.1776009,0.9455929,0.186039
		c0.8325672,0.6669044,1.1983109,1.4685669,1.1983109,1.4685669"/>
	<path fill="#FFFFFF" d="M25.3527279,13.2400227c-0.7897491-0.798831-3.2102413-0.86203-4.2878056,0.4724684
		c-1.2895737,1.5977478-0.672514,3.2214613,0.4724426,4.0182352c1.1702309,0.8129272,3.9838409,1.3499241,6.0435009,4.6591778
		c1.6777744,2.6949615,2.3973236,4.929409,1.519825,7.1912365c-0.8781986,2.2625542-2.7813129,3.5787983-4.895731,4.2541027
		c-0.0968761,0.0308952,4.4029274,0.8199577,7.2249603-4.2877808c2.3067627-4.1740685-1.4664764-9.7416344-2.1944447-10.9729156
		C28.0659466,16.5962791,26.2358379,14.1344013,25.3527279,13.2400227z"/>
	<path fill="none" stroke="#0069A9" stroke-width="0.433" d="M25.3527279,13.2400227
		c-0.7897491-0.798831-3.2102413-0.86203-4.2878056,0.4724684c-1.2895737,1.5977478-0.672514,3.2214613,0.4724426,4.0182352
		c1.1702309,0.8129272,3.9838409,1.3499241,6.0435009,4.6591778c1.6777744,2.6949615,2.3973236,4.929409,1.519825,7.1912365
		c-0.8781986,2.2625542-2.7813129,3.5787983-4.895731,4.2541027c-0.0968761,0.0308952,4.4029274,0.8199577,7.2249603-4.2877808
		c2.3067627-4.1740685-1.4664764-9.7416344-2.1944447-10.9729156
		C28.0659466,16.5962791,26.2358379,14.1344013,25.3527279,13.2400227z"/>
	<path fill="none" stroke="#0069A9" stroke-width="0.495" d="M23.5745678,14.6903353
		c-0.4675293,0-0.8466091,0.3791065-0.8466091,0.8466482c0,0.4682274,0.3790798,0.84729,0.8466091,0.84729
		c0.4675255,0,0.8466053-0.3790627,0.8466053-0.84729C24.4211731,15.0694418,24.0420933,14.6903353,23.5745678,14.6903353z"/>
	<path fill="none" stroke="#0069A9" stroke-width="0.495" d="M23.5801868,14.0353832
		c-0.8381863,0-1.5177212,0.6795464-1.5177212,1.5177536c0,0.8374786,0.6795349,1.517025,1.5177212,1.517025
		c0.8381805,0,1.5177155-0.6795464,1.5177155-1.517025C25.0979023,14.7149296,24.4183674,14.0353832,23.5801868,14.0353832z"/>
</g>
</svg>
